<?xml version="1.0" encoding="utf-8"?>

<svg version="1.1" id="Livello_1" xmlns="http://www.w3.org/2000/svg" xmlns:xlink="http://www.w3.org/1999/xlink" x="0px" y="0px" viewBox="0 0 850.03 294.23" style="enable-background:new 0 0 850.03 294.23;" xml:space="preserve">

<g>
&#x9;<path class="st0" d="M547.39,118.58h18.84v3.28h-22.41V86.67h21.82v3.28h-18.24v11.98h17.05v3.28h-17.05V118.58z"></path>
&#x9;<path class="st0" d="M597.08,108.74c0,1.46-0.17,3.01-0.52,4.65c-0.35,1.64-1,3.16-1.96,4.55c-0.96,1.39-2.28,2.54-3.95,3.45&#xA;&#x9;&#x9;c-1.67,0.91-3.82,1.37-6.44,1.37c-2.65,0-4.8-0.46-6.46-1.37c-1.66-0.91-2.97-2.06-3.93-3.45c-0.96-1.39-1.62-2.91-1.96-4.55&#xA;&#x9;&#x9;c-0.35-1.64-0.52-3.19-0.52-4.65V86.67h3.58v21.67c0,1.69,0.17,3.14,0.5,4.35s0.77,2.23,1.32,3.06c0.55,0.83,1.16,1.48,1.84,1.96&#xA;&#x9;&#x9;c0.68,0.48,1.36,0.85,2.04,1.12c0.68,0.27,1.33,0.44,1.96,0.52c0.63,0.08,1.18,0.12,1.64,0.12c0.43,0,0.97-0.04,1.62-0.12&#xA;&#x9;&#x9;c0.65-0.08,1.31-0.26,1.99-0.52c0.68-0.26,1.36-0.64,2.04-1.12c0.68-0.48,1.29-1.13,1.84-1.96c0.55-0.83,0.99-1.85,1.32-3.06&#xA;&#x9;&#x9;s0.5-2.66,0.5-4.35V86.67h3.58V108.74z"></path>
&#x9;<path class="st0" d="M609.24,121.86h-3.58V86.67h10.83c3.58,0,6.4,0.78,8.47,2.34c2.07,1.56,3.11,3.91,3.11,7.06&#xA;&#x9;&#x9;c0,2.45-0.77,4.52-2.31,6.19c-1.54,1.67-3.77,2.64-6.68,2.91l10.14,16.7h-4.37l-9.64-16.35h-5.96V121.86z M609.24,102.23h6.36&#xA;&#x9;&#x9;c1.59,0,2.94-0.17,4.05-0.5c1.11-0.33,2-0.77,2.66-1.32c0.66-0.55,1.14-1.19,1.44-1.94c0.3-0.75,0.45-1.55,0.45-2.41&#xA;&#x9;&#x9;c0-0.83-0.15-1.62-0.45-2.36c-0.3-0.75-0.78-1.4-1.44-1.96c-0.66-0.56-1.55-1-2.66-1.32c-1.11-0.31-2.46-0.47-4.05-0.47h-6.36&#xA;&#x9;&#x9;V102.23z"></path>
&#x9;<path class="st0" d="M668.95,104.27c0,2.68-0.46,5.15-1.39,7.41c-0.93,2.25-2.21,4.2-3.85,5.84c-1.64,1.64-3.58,2.92-5.82,3.85&#xA;&#x9;&#x9;s-4.66,1.39-7.28,1.39s-5.04-0.46-7.28-1.39c-2.24-0.93-4.17-2.21-5.82-3.85c-1.64-1.64-2.92-3.59-3.85-5.84&#xA;&#x9;&#x9;c-0.93-2.25-1.39-4.72-1.39-7.41c0-2.68,0.46-5.15,1.39-7.41c0.93-2.25,2.21-4.2,3.85-5.84c1.64-1.64,3.58-2.92,5.82-3.85&#xA;&#x9;&#x9;c2.24-0.93,4.66-1.39,7.28-1.39s5.04,0.46,7.28,1.39c2.24,0.93,4.17,2.21,5.82,3.85c1.64,1.64,2.92,3.59,3.85,5.84&#xA;&#x9;&#x9;C668.48,99.11,668.95,101.58,668.95,104.27z M665.07,104.27c0-2.02-0.33-3.95-0.99-5.79s-1.62-3.45-2.86-4.85s-2.76-2.5-4.55-3.33&#xA;&#x9;&#x9;c-1.79-0.83-3.81-1.24-6.06-1.24s-4.27,0.41-6.06,1.24c-1.79,0.83-3.3,1.94-4.55,3.33c-1.24,1.39-2.2,3.01-2.86,4.85&#xA;&#x9;&#x9;s-0.99,3.77-0.99,5.79c0,2.02,0.33,3.95,0.99,5.79s1.62,3.45,2.86,4.85c1.24,1.39,2.76,2.5,4.55,3.33&#xA;&#x9;&#x9;c1.79,0.83,3.81,1.24,6.06,1.24s4.27-0.41,6.06-1.24c1.79-0.83,3.31-1.94,4.55-3.33s2.19-3.01,2.86-4.85&#xA;&#x9;&#x9;S665.07,106.29,665.07,104.27z"></path>
&#x9;<path class="st0" d="M675.71,86.67h10.24c3.58,0,6.4,0.78,8.47,2.34c2.07,1.56,3.11,3.91,3.11,7.06c0,3.15-1.04,5.51-3.11,7.08&#xA;&#x9;&#x9;c-2.07,1.57-4.9,2.36-8.47,2.36h-6.66v16.35h-3.58V86.67z M679.29,102.23h5.77c1.59,0,2.94-0.17,4.05-0.5&#xA;&#x9;&#x9;c1.11-0.33,2-0.77,2.66-1.32c0.66-0.55,1.14-1.19,1.44-1.94s0.45-1.55,0.45-2.41c0-0.83-0.15-1.62-0.45-2.36&#xA;&#x9;&#x9;c-0.3-0.75-0.78-1.4-1.44-1.96c-0.66-0.56-1.55-1-2.66-1.32s-2.46-0.47-4.05-0.47h-5.77V102.23z"></path>
&#x9;<path class="st0" d="M706.64,118.58h18.84v3.28h-22.41V86.67h21.82v3.28h-18.24v11.98h17.05v3.28h-17.05V118.58z"></path>
&#x9;<path class="st0" d="M733.17,121.86H729l15.31-35.19h3.48l15.31,35.19h-4.17l-3.88-9.24h-17.99L733.17,121.86z M738.39,109.34&#xA;&#x9;&#x9;h15.26l-7.6-18.49L738.39,109.34z"></path>
&#x9;<path class="st0" d="M793.2,116.49h0.1V86.67h3.58v35.19h-4.47l-20.97-30.12h-0.1v30.12h-3.58V86.67h4.47L793.2,116.49z"></path>
&#x9;<path class="st0" d="M568.96,168.44c0,1.46-0.17,3.01-0.52,4.65c-0.35,1.64-1,3.16-1.96,4.55c-0.96,1.39-2.28,2.54-3.95,3.45&#xA;&#x9;&#x9;c-1.67,0.91-3.82,1.37-6.44,1.37c-2.65,0-4.8-0.46-6.46-1.37c-1.66-0.91-2.97-2.06-3.93-3.45c-0.96-1.39-1.62-2.91-1.96-4.55&#xA;&#x9;&#x9;c-0.35-1.64-0.52-3.19-0.52-4.65v-22.07h3.58v21.67c0,1.69,0.17,3.14,0.5,4.35s0.77,2.23,1.32,3.06c0.55,0.83,1.16,1.48,1.84,1.96&#xA;&#x9;&#x9;c0.68,0.48,1.36,0.85,2.04,1.12c0.68,0.27,1.33,0.44,1.96,0.52c0.63,0.08,1.18,0.12,1.64,0.12c0.43,0,0.97-0.04,1.62-0.12&#xA;&#x9;&#x9;c0.65-0.08,1.31-0.26,1.99-0.52c0.68-0.26,1.36-0.64,2.04-1.12c0.68-0.48,1.29-1.13,1.84-1.96c0.55-0.83,0.99-1.85,1.32-3.06&#xA;&#x9;&#x9;s0.5-2.66,0.5-4.35v-21.67h3.58V168.44z"></path>
&#x9;<path class="st0" d="M603,176.19h0.1v-29.82h3.58v35.19h-4.47l-20.97-30.12h-0.1v30.12h-3.58v-35.19h4.47L603,176.19z"></path>
&#x9;<path class="st0" d="M619.21,181.56h-3.58v-35.19h3.58V181.56z"></path>
&#x9;<path class="st0" d="M638.96,176.19h0.1l11.53-29.82h3.88l-13.72,35.19h-3.58l-13.37-35.19h3.98L638.96,176.19z"></path>
&#x9;<path class="st0" d="M662.6,178.28h18.84v3.28h-22.41v-35.19h21.82v3.28H662.6v11.98h17.05v3.28H662.6V178.28z"></path>
&#x9;<path class="st0" d="M690.89,181.56h-3.58v-35.19h10.83c3.58,0,6.4,0.78,8.47,2.34c2.07,1.56,3.11,3.91,3.11,7.06&#xA;&#x9;&#x9;c0,2.45-0.77,4.52-2.31,6.19c-1.54,1.67-3.77,2.64-6.68,2.91l10.14,16.7h-4.37l-9.64-16.35h-5.96V181.56z M690.89,161.93h6.36&#xA;&#x9;&#x9;c1.59,0,2.94-0.17,4.05-0.5c1.11-0.33,2-0.77,2.66-1.32c0.66-0.55,1.14-1.19,1.44-1.94c0.3-0.75,0.45-1.55,0.45-2.41&#xA;&#x9;&#x9;c0-0.83-0.15-1.62-0.45-2.36c-0.3-0.75-0.78-1.4-1.44-1.96c-0.66-0.56-1.55-1-2.66-1.32c-1.11-0.31-2.46-0.47-4.05-0.47h-6.36&#xA;&#x9;&#x9;V161.93z"></path>
&#x9;<path class="st0" d="M732.94,152.19c-1.56-2.29-3.83-3.43-6.81-3.43c-0.93,0-1.84,0.12-2.73,0.37s-1.7,0.63-2.41,1.14&#xA;&#x9;&#x9;c-0.71,0.51-1.28,1.18-1.71,1.99c-0.43,0.81-0.65,1.76-0.65,2.86c0,1.59,0.45,2.83,1.34,3.7c0.89,0.88,2,1.6,3.33,2.16&#xA;&#x9;&#x9;c1.32,0.56,2.77,1.07,4.35,1.52c1.57,0.45,3.02,1.04,4.35,1.79c1.32,0.75,2.44,1.73,3.33,2.96c0.89,1.23,1.34,2.9,1.34,5.02&#xA;&#x9;&#x9;c0,1.59-0.34,3.02-1.02,4.3c-0.68,1.28-1.57,2.34-2.68,3.21c-1.11,0.86-2.35,1.52-3.73,1.99c-1.38,0.46-2.76,0.7-4.15,0.7&#xA;&#x9;&#x9;c-2.15,0-4.2-0.41-6.14-1.22c-1.94-0.81-3.59-2.14-4.94-4l3.28-2.34c0.76,1.29,1.82,2.33,3.17,3.11c1.35,0.78,2.96,1.17,4.81,1.17&#xA;&#x9;&#x9;c0.89,0,1.78-0.14,2.68-0.42c0.89-0.28,1.69-0.7,2.4-1.24c0.71-0.55,1.3-1.22,1.76-2.01c0.46-0.79,0.69-1.71,0.69-2.73&#xA;&#x9;&#x9;c0-1.23-0.26-2.24-0.77-3.06c-0.51-0.81-1.19-1.49-2.04-2.04c-0.85-0.55-1.81-1-2.88-1.37c-1.08-0.36-2.19-0.73-3.33-1.09&#xA;&#x9;&#x9;c-1.14-0.36-2.25-0.78-3.33-1.24c-1.08-0.46-2.04-1.05-2.88-1.76c-0.84-0.71-1.52-1.61-2.04-2.68c-0.51-1.08-0.77-2.43-0.77-4.05&#xA;&#x9;&#x9;c0-1.69,0.32-3.16,0.97-4.42c0.65-1.26,1.51-2.3,2.58-3.13c1.08-0.83,2.29-1.44,3.65-1.84s2.75-0.6,4.17-0.6&#xA;&#x9;&#x9;c1.99,0,3.79,0.31,5.42,0.94c1.62,0.63,3.13,1.74,4.52,3.33L732.94,152.19z"></path>
&#x9;<path class="st0" d="M746.84,181.56h-3.58v-35.19h3.58V181.56z"></path>
&#x9;<path class="st0" d="M767.17,181.56h-3.58v-31.91h-11.78v-3.28h27.14v3.28h-11.78V181.56z"></path>
&#x9;<path class="st0" d="M798.1,181.56h-3.58V166.4l-13.17-20.03h4.47l10.49,16.6l10.49-16.6h4.47L798.1,166.4V181.56z"></path>
&#x9;<path class="st0" d="M547.39,241.26h-3.58v-35.19h3.58V241.26z"></path>
&#x9;<path class="st0" d="M581.8,235.89h0.1v-29.82h3.58v35.19H581l-20.97-30.12h-0.1v30.12h-3.58v-35.19h4.47L581.8,235.89z"></path>
&#x9;<path class="st0" d="M610.91,211.89c-1.56-2.29-3.83-3.43-6.81-3.43c-0.93,0-1.84,0.12-2.73,0.37s-1.7,0.63-2.41,1.14&#xA;&#x9;&#x9;c-0.71,0.51-1.28,1.18-1.71,1.99c-0.43,0.81-0.65,1.76-0.65,2.86c0,1.59,0.45,2.83,1.34,3.7c0.89,0.88,2,1.6,3.33,2.16&#xA;&#x9;&#x9;c1.32,0.56,2.77,1.07,4.35,1.52c1.57,0.45,3.02,1.04,4.35,1.79c1.32,0.75,2.44,1.73,3.33,2.96c0.89,1.23,1.34,2.9,1.34,5.02&#xA;&#x9;&#x9;c0,1.59-0.34,3.02-1.02,4.3c-0.68,1.28-1.57,2.34-2.68,3.21c-1.11,0.86-2.35,1.52-3.73,1.99c-1.38,0.46-2.76,0.7-4.15,0.7&#xA;&#x9;&#x9;c-2.15,0-4.2-0.41-6.14-1.22c-1.94-0.81-3.59-2.14-4.94-4l3.28-2.34c0.76,1.29,1.82,2.33,3.17,3.11c1.35,0.78,2.96,1.17,4.81,1.17&#xA;&#x9;&#x9;c0.89,0,1.78-0.14,2.68-0.42c0.89-0.28,1.69-0.7,2.4-1.24c0.71-0.55,1.3-1.22,1.76-2.01c0.46-0.79,0.69-1.71,0.69-2.73&#xA;&#x9;&#x9;c0-1.23-0.26-2.24-0.77-3.06c-0.51-0.81-1.19-1.49-2.04-2.04c-0.85-0.55-1.81-1-2.88-1.37c-1.08-0.36-2.19-0.73-3.33-1.09&#xA;&#x9;&#x9;c-1.14-0.36-2.25-0.78-3.33-1.24c-1.08-0.46-2.04-1.05-2.88-1.76c-0.84-0.71-1.52-1.61-2.04-2.68c-0.51-1.08-0.77-2.43-0.77-4.05&#xA;&#x9;&#x9;c0-1.69,0.32-3.16,0.97-4.42c0.65-1.26,1.51-2.3,2.58-3.13c1.08-0.83,2.29-1.44,3.65-1.84s2.75-0.6,4.17-0.6&#xA;&#x9;&#x9;c1.99,0,3.79,0.31,5.42,0.94c1.62,0.63,3.13,1.74,4.52,3.33L610.91,211.89z"></path>
&#x9;<path class="st0" d="M633.59,241.26h-3.58v-31.91h-11.78v-3.28h27.14v3.28h-11.78V241.26z"></path>
&#x9;<path class="st0" d="M653.9,241.26h-3.58v-35.19h3.58V241.26z"></path>
&#x9;<path class="st0" d="M674.23,241.26h-3.58v-31.91h-11.78v-3.28h27.14v3.28h-11.78V241.26z"></path>
&#x9;<path class="st0" d="M716.43,228.14c0,1.46-0.17,3.01-0.52,4.65c-0.35,1.64-1,3.16-1.96,4.55c-0.96,1.39-2.28,2.54-3.95,3.45&#xA;&#x9;&#x9;c-1.67,0.91-3.82,1.37-6.44,1.37c-2.65,0-4.8-0.46-6.46-1.37c-1.66-0.91-2.97-2.06-3.93-3.45c-0.96-1.39-1.62-2.91-1.96-4.55&#xA;&#x9;&#x9;c-0.35-1.64-0.52-3.19-0.52-4.65v-22.07h3.58v21.67c0,1.69,0.17,3.14,0.5,4.35s0.77,2.23,1.32,3.06c0.55,0.83,1.16,1.48,1.84,1.96&#xA;&#x9;&#x9;c0.68,0.48,1.36,0.85,2.04,1.12c0.68,0.27,1.33,0.44,1.96,0.52c0.63,0.08,1.18,0.12,1.64,0.12c0.43,0,0.97-0.04,1.62-0.12&#xA;&#x9;&#x9;c0.65-0.08,1.31-0.26,1.99-0.52c0.68-0.26,1.36-0.64,2.04-1.12c0.68-0.48,1.29-1.13,1.84-1.96c0.55-0.83,0.99-1.85,1.32-3.06&#xA;&#x9;&#x9;s0.5-2.66,0.5-4.35v-21.67h3.58V228.14z"></path>
&#x9;<path class="st0" d="M736.49,241.26h-3.58v-31.91h-11.78v-3.28h27.14v3.28h-11.78V241.26z"></path>
&#x9;<path class="st0" d="M756.8,237.98h18.84v3.28h-22.41v-35.19h21.82v3.28H756.8v11.98h17.05v3.28H756.8V237.98z"></path>
</g>
<path class="st1" d="M232.45,129.39v111.83h-63.08l0.34-154.52h-62.35l-0.34,154.52h-62.8V129.39v-9.51&#xA;&#x9;c0-51.98,42.14-94.11,94.11-94.11h0c51.98,0,94.11,42.14,94.11,94.11V129.39z"></path>
<g>
&#x9;<path class="st1" d="M135.65,138.44h-17.13v-18.73c0-4.73,3.83-8.56,8.56-8.56h0c4.73,0,8.56,3.83,8.56,8.56V138.44z"></path>
&#x9;<path class="st1" d="M158.17,138.44h-17.13v-18.73c0-4.73,3.83-8.56,8.56-8.56h0c4.73,0,8.56,3.83,8.56,8.56V138.44z"></path>
</g>
<path class="st0" d="M267.57,241.22V86.7h80.77v26.27h-50.6v34.69h38.92v26.27h-38.92v41.01h54.01v26.27H267.57z"></path>
<path class="st0" d="M477.32,241.22V86.7h30.17v154.52H477.32z"></path>
<path class="st0" d="M457.1,197.43c0,25.53-20.69,46.22-46.22,46.22c-25.53,0-46.22-20.69-46.22-46.22l0-0.49V86.7h30.17v111.46&#xA;&#x9;l0,2.66c0,8.67,6.66,16.16,15.33,16.54c9.2,0.41,16.78-6.93,16.78-16.04l0-3.16V86.7h30.17v110.25L457.1,197.43z"></path>
</svg>